<svg id="lab" xmlns="http://www.w3.org/2000/svg" width="24" height="30" viewBox="0 0 24 30">
  <defs>
    <style>
      .cls-1 {
        fill: #333;
      }

      .cls-1, .cls-2 {
        fill-rule: evenodd;
      }

      .cls-2 {
        fill: #53a665;
      }
    </style>
  </defs>
  <path id="Lab-2" data-name="Lab" class="cls-1" d="M620,564H602a6.708,6.708,0,0,1,3-9h3v-9h-1.5a1.5,1.5,0,0,1,0-3h9a1.5,1.5,0,0,1,0,3H614v9h3a3,3,0,0,1,3,3A3,3,0,0,1,620,564Z" transform="translate(-599 -534)"/>
  <path id="Lab_copy" data-name="Lab copy" class="cls-2" d="M618.5,537a1.5,1.5,0,1,1,1.5-1.5A1.5,1.5,0,0,1,618.5,537ZM608,540a3,3,0,1,1,3-3A3,3,0,0,1,608,540Z" transform="translate(-599 -534)"/>
</svg>
